<svg xmlns="http://www.w3.org/2000/svg" width="64" height="64" viewBox="0 0 64 64" shape-rendering="crispEdges">
      <ellipse cx="32" cy="54" rx="14" ry="5" fill="#16151c" opacity=".35"/>
      <rect x="19" y="18" width="26" height="28" fill="#b5664c"/><rect x="15" y="27" width="34" height="12" fill="#b5664c"/>
      <rect x="20" y="13" width="10" height="9" fill="#e9c29e"/><rect x="34" y="13" width="10" height="9" fill="#e9c29e"/>
      <rect x="24" y="26" width="4" height="4" fill="#16151c"/><rect x="36" y="26" width="4" height="4" fill="#16151c"/>
      <rect x="29" y="33" width="6" height="3" fill="#f4eddc"/>
      <rect x="15" y="38" width="6" height="9" fill="#e9c29e"/><rect x="43" y="38" width="6" height="9" fill="#e9c29e"/>
      <rect x="23" y="45" width="7" height="8" fill="#b5664c"/><rect x="35" y="45" width="7" height="8" fill="#b5664c"/>
    <rect x="12" y="8" width="10" height="10" fill="#b5664c"/><rect x="42" y="8" width="10" height="10" fill="#b5664c"/><rect x="29" y="35" width="6" height="2" fill="#16151c"/><rect x="31" y="37" width="2" height="2" fill="#16151c"/></svg>